<svg width="189" height="88" fill="none" xmlns="http://www.w3.org/2000/svg"><path fill-rule="evenodd" clip-rule="evenodd" d="M189 0H0v72h78l16 16 16-16h79V0Z" fill="#FCB72B"/><path d="M58.689 39.96c0 1.744-.472 3.08-1.416 4.008-.944.912-2.24 1.368-3.888 1.368-.848 0-1.616-.112-2.304-.336a5.14 5.14 0 0 1-1.776-1.032 4.77 4.77 0 0 1-1.152-1.68c-.272-.672-.408-1.448-.408-2.328v-1.584h3.168v1.584c0 .752.208 1.344.624 1.776.416.416 1 .624 1.752.624.704 0 1.248-.208 1.632-.624.4-.416.6-1.008.6-1.776v-8.784h-1.728V28.2h6.336v2.976h-1.44v8.784Zm10.792 3.312c-.32.752-.768 1.288-1.344 1.608-.576.304-1.248.456-2.016.456-.72 0-1.4-.136-2.04-.408a4.832 4.832 0 0 1-1.656-1.2c-.48-.528-.864-1.168-1.152-1.92-.272-.752-.408-1.608-.408-2.568v-.384c0-.944.136-1.792.408-2.544.272-.752.64-1.392 1.104-1.92a4.66 4.66 0 0 1 1.608-1.2 4.697 4.697 0 0 1 1.992-.432c.848 0 1.528.144 2.04.432.528.288.944.736 1.248 1.344h.432v-1.44h3.024V41.4c0 .48.216.72.648.72h.456V45H71.76c-.544 0-.992-.16-1.344-.48-.336-.32-.504-.736-.504-1.248h-.432Zm-2.688-.816c.88 0 1.584-.288 2.112-.864.528-.592.792-1.392.792-2.4v-.288c0-1.008-.264-1.8-.792-2.376-.528-.592-1.232-.888-2.112-.888-.88 0-1.584.296-2.112.888-.528.576-.792 1.368-.792 2.376v.288c0 1.008.264 1.808.792 2.4.528.576 1.232.864 2.112.864Zm12.591-4.992h.576l3.169-4.368h3.311v.144l-3.84 5.448v.432l4.225 5.736V45h-3.457l-3.407-4.656h-.576V45H76.36V28.2h3.025v9.264Zm17.344 5.808c-.32.752-.768 1.288-1.344 1.608-.576.304-1.248.456-2.016.456-.72 0-1.4-.136-2.04-.408a4.832 4.832 0 0 1-1.656-1.2c-.48-.528-.864-1.168-1.152-1.92-.272-.752-.408-1.608-.408-2.568v-.384c0-.944.136-1.792.408-2.544.272-.752.64-1.392 1.104-1.92a4.66 4.66 0 0 1 1.608-1.2 4.697 4.697 0 0 1 1.992-.432c.848 0 1.528.144 2.04.432.528.288.944.736 1.248 1.344h.432v-1.44h3.024V41.4c0 .48.216.72.648.72h.456V45h-2.064c-.544 0-.992-.16-1.344-.48-.336-.32-.504-.736-.504-1.248h-.432Zm-2.688-.816c.88 0 1.584-.288 2.112-.864.528-.592.792-1.392.792-2.4v-.288c0-1.008-.264-1.8-.792-2.376-.528-.592-1.232-.888-2.112-.888-.88 0-1.584.296-2.112.888-.528.576-.792 1.368-.792 2.376v.288c0 1.008.264 1.808.792 2.4.528.576 1.232.864 2.112.864Zm8.032-9.36h5.04v1.728h.432c.224-.656.6-1.16 1.128-1.512.544-.368 1.192-.552 1.944-.552 1.184 0 2.136.376 2.856 1.128.72.736 1.08 1.864 1.08 3.384v.528l-3.12.288v-.336c0-.656-.168-1.176-.504-1.56-.336-.4-.84-.6-1.512-.6s-1.2.232-1.584.696c-.384.464-.576 1.128-.576 1.992v3.84h2.736V45h-8.208v-2.88h2.448v-6.144h-2.16v-2.88Zm13.864 0h3.528V28.2h3.024v4.896h4.296v2.88h-4.296V41.4c0 .48.216.72.648.72h3.216V45h-5.04c-.544 0-.992-.176-1.344-.528-.336-.352-.504-.8-.504-1.344v-7.152h-3.528v-2.88ZM137.6 43.272c-.32.752-.768 1.288-1.344 1.608-.576.304-1.248.456-2.016.456-.72 0-1.4-.136-2.04-.408a4.832 4.832 0 0 1-1.656-1.2c-.48-.528-.864-1.168-1.152-1.92-.272-.752-.408-1.608-.408-2.568v-.384c0-.944.136-1.792.408-2.544.272-.752.64-1.392 1.104-1.92a4.66 4.66 0 0 1 1.608-1.2 4.697 4.697 0 0 1 1.992-.432c.848 0 1.528.144 2.04.432.528.288.944.736 1.248 1.344h.432v-1.44h3.024V41.4c0 .48.216.72.648.72h.456V45h-2.064c-.544 0-.992-.16-1.344-.48-.336-.32-.504-.736-.504-1.248h-.432Zm-2.688-.816c.88 0 1.584-.288 2.112-.864.528-.592.792-1.392.792-2.4v-.288c0-1.008-.264-1.8-.792-2.376-.528-.592-1.232-.888-2.112-.888-.88 0-1.584.296-2.112.888-.528.576-.792 1.368-.792 2.376v.288c0 1.008.264 1.808.792 2.4.528.576 1.232.864 2.112.864Z" fill="#495567"/></svg>