<svg width="189" height="88" fill="none" xmlns="http://www.w3.org/2000/svg"><path fill-rule="evenodd" clip-rule="evenodd" d="M189 0H0v72h78l16 16 16-16h79V0Z" fill="#FCB72B"/><path d="M55.06 28.2h3.169v13.776h7.632V45h-10.8V28.2Zm25.192 10.992c0 .992-.167 1.872-.503 2.64a5.753 5.753 0 0 1-1.368 1.92 6.078 6.078 0 0 1-1.993 1.176 6.661 6.661 0 0 1-2.328.408c-.816 0-1.6-.136-2.352-.408a6.135 6.135 0 0 1-1.968-1.176 5.753 5.753 0 0 1-1.367-1.92c-.337-.768-.505-1.648-.505-2.64v-.288c0-.976.169-1.84.505-2.592a5.694 5.694 0 0 1 1.367-1.944 5.923 5.923 0 0 1 1.969-1.2 6.862 6.862 0 0 1 2.352-.408c.815 0 1.591.136 2.327.408a5.871 5.871 0 0 1 1.992 1.2 5.694 5.694 0 0 1 1.369 1.944c.336.752.504 1.616.504 2.592v.288Zm-6.191 3.264c.431 0 .84-.072 1.223-.216a2.97 2.97 0 0 0 1.008-.624c.288-.272.513-.6.672-.984.177-.4.264-.848.264-1.344v-.48c0-.496-.087-.936-.263-1.32-.16-.4-.385-.736-.672-1.008a2.97 2.97 0 0 0-1.009-.624 3.457 3.457 0 0 0-1.224-.216c-.431 0-.84.072-1.224.216a2.97 2.97 0 0 0-1.007.624c-.288.272-.52.608-.697 1.008-.16.384-.24.824-.24 1.32v.48c0 .496.08.944.24 1.344.176.384.408.712.697.984.288.272.624.48 1.008.624.383.144.791.216 1.224.216ZM85.236 45h-3.024V33.096h3.024v1.776h.432a3.159 3.159 0 0 1 1.32-1.56c.608-.368 1.32-.552 2.136-.552.576 0 1.112.096 1.608.288.512.176.96.456 1.344.84.384.384.68.872.888 1.464.224.592.336 1.296.336 2.112V45h-3.024v-6.768c0-.848-.208-1.512-.624-1.992-.4-.496-.984-.744-1.752-.744-.896 0-1.568.304-2.016.912-.432.592-.648 1.392-.648 2.4V45Zm19.144-1.728h-.432a4.547 4.547 0 0 1-.48.792c-.176.24-.416.456-.72.648-.288.192-.64.344-1.056.456-.4.112-.888.168-1.464.168a5.505 5.505 0 0 1-2.064-.384 4.98 4.98 0 0 1-1.656-1.176c-.464-.528-.832-1.168-1.104-1.92-.256-.752-.384-1.616-.384-2.592v-.432c0-.96.136-1.816.408-2.568.288-.752.672-1.384 1.152-1.896a5.009 5.009 0 0 1 1.704-1.2 5.336 5.336 0 0 1 2.064-.408c.96 0 1.72.184 2.28.552.56.352 1 .856 1.32 1.512h.432V28.2h3.024V45h-3.024v-1.728Zm-3.168-.816c.944 0 1.704-.296 2.28-.888.592-.608.888-1.4.888-2.376v-.288c0-.976-.296-1.76-.888-2.352-.576-.608-1.336-.912-2.28-.912-.944 0-1.712.296-2.304.888-.576.576-.864 1.368-.864 2.376v.288c0 1.008.288 1.808.864 2.4.592.576 1.36.864 2.304.864Zm19.912-3.264c0 .992-.168 1.872-.504 2.64a5.753 5.753 0 0 1-1.368 1.92 6.078 6.078 0 0 1-1.992 1.176 6.661 6.661 0 0 1-2.328.408c-.816 0-1.6-.136-2.352-.408a6.135 6.135 0 0 1-1.968-1.176 5.753 5.753 0 0 1-1.368-1.92c-.336-.768-.504-1.648-.504-2.64v-.288c0-.976.168-1.84.504-2.592a5.694 5.694 0 0 1 1.368-1.944 5.923 5.923 0 0 1 1.968-1.2 6.862 6.862 0 0 1 2.352-.408c.816 0 1.592.136 2.328.408a5.871 5.871 0 0 1 1.992 1.2 5.694 5.694 0 0 1 1.368 1.944c.336.752.504 1.616.504 2.592v.288Zm-6.192 3.264c.432 0 .84-.072 1.224-.216a2.97 2.97 0 0 0 1.008-.624c.288-.272.512-.6.672-.984.176-.4.264-.848.264-1.344v-.48c0-.496-.088-.936-.264-1.32-.16-.4-.384-.736-.672-1.008a2.97 2.97 0 0 0-1.008-.624 3.457 3.457 0 0 0-1.224-.216c-.432 0-.84.072-1.224.216a2.97 2.97 0 0 0-1.008.624c-.288.272-.52.608-.696 1.008-.16.384-.24.824-.24 1.32v.48c0 .496.08.944.24 1.344.176.384.408.712.696.984s.624.48 1.008.624c.384.144.792.216 1.224.216ZM126.108 45h-3.024V33.096h3.024v1.776h.432a3.159 3.159 0 0 1 1.32-1.56c.608-.368 1.32-.552 2.136-.552.576 0 1.112.096 1.608.288.512.176.96.456 1.344.84.384.384.68.872.888 1.464.224.592.336 1.296.336 2.112V45h-3.024v-6.768c0-.848-.208-1.512-.624-1.992-.4-.496-.984-.744-1.752-.744-.896 0-1.568.304-2.016.912-.432.592-.648 1.392-.648 2.4V45Z" fill="#495567"/></svg>