<svg width="189" height="88" fill="none" xmlns="http://www.w3.org/2000/svg"><path fill-rule="evenodd" clip-rule="evenodd" d="M189 0H0v72h78l16 16 16-16h79V0Z" fill="#FCB72B"/><path d="M44.729 39.096h-.72L39.185 28.2h3.456l3.456 8.016h.432l3.456-8.016h3.456l-4.824 10.896h-.72V45h-3.168v-5.904Zm21.4.096c0 .992-.168 1.872-.504 2.64a5.753 5.753 0 0 1-1.368 1.92 6.078 6.078 0 0 1-1.992 1.176 6.661 6.661 0 0 1-2.328.408c-.816 0-1.6-.136-2.352-.408a6.135 6.135 0 0 1-1.968-1.176 5.753 5.753 0 0 1-1.368-1.92c-.336-.768-.504-1.648-.504-2.64v-.288c0-.976.168-1.84.504-2.592a5.694 5.694 0 0 1 1.368-1.944 5.923 5.923 0 0 1 1.968-1.2 6.862 6.862 0 0 1 2.352-.408c.816 0 1.592.136 2.328.408a5.871 5.871 0 0 1 1.992 1.2 5.694 5.694 0 0 1 1.368 1.944c.336.752.504 1.616.504 2.592v.288Zm-6.192 3.264c.432 0 .84-.072 1.224-.216a2.97 2.97 0 0 0 1.008-.624c.288-.272.512-.6.672-.984.176-.4.264-.848.264-1.344v-.48c0-.496-.088-.936-.264-1.32-.16-.4-.384-.736-.672-1.008a2.97 2.97 0 0 0-1.008-.624 3.457 3.457 0 0 0-1.224-.216c-.432 0-.84.072-1.224.216a2.97 2.97 0 0 0-1.008.624c-.288.272-.52.608-.696 1.008-.16.384-.24.824-.24 1.32v.48c0 .496.08.944.24 1.344.176.384.408.712.696.984s.624.48 1.008.624c.384.144.792.216 1.224.216Zm12.136-4.992h.576l3.168-4.368h3.312v.144l-3.84 5.448v.432l4.224 5.736V45h-3.457l-3.407-4.656h-.576V45h-3.024V28.2h3.023v9.264Zm21.303 1.728c0 .992-.168 1.872-.504 2.64a5.753 5.753 0 0 1-1.368 1.92 6.078 6.078 0 0 1-1.992 1.176 6.661 6.661 0 0 1-2.328.408c-.816 0-1.6-.136-2.352-.408a6.135 6.135 0 0 1-1.968-1.176 5.753 5.753 0 0 1-1.368-1.92c-.336-.768-.504-1.648-.504-2.64v-.288c0-.976.168-1.84.504-2.592a5.694 5.694 0 0 1 1.368-1.944 5.923 5.923 0 0 1 1.968-1.2 6.862 6.862 0 0 1 2.352-.408c.816 0 1.592.136 2.328.408a5.871 5.871 0 0 1 1.992 1.2 5.694 5.694 0 0 1 1.368 1.944c.336.752.504 1.616.504 2.592v.288Zm-6.192 3.264c.432 0 .84-.072 1.224-.216a2.97 2.97 0 0 0 1.008-.624c.288-.272.512-.6.672-.984.176-.4.264-.848.264-1.344v-.48c0-.496-.088-.936-.264-1.32-.16-.4-.384-.736-.672-1.008a2.97 2.97 0 0 0-1.008-.624 3.457 3.457 0 0 0-1.224-.216c-.432 0-.84.072-1.224.216a2.97 2.97 0 0 0-1.008.624c-.288.272-.52.608-.696 1.008-.16.384-.24.824-.24 1.32v.48c0 .496.08.944.24 1.344.176.384.408.712.696.984s.624.48 1.008.624c.384.144.792.216 1.224.216ZM98.408 45h-3.024V28.2h3.024v6.816h.432c.304-.72.752-1.272 1.344-1.656.592-.4 1.32-.6 2.184-.6.592 0 1.136.096 1.632.288.496.192.928.48 1.296.864s.656.88.864 1.488c.208.592.312 1.296.312 2.112V45h-3.024v-6.768c0-.848-.208-1.512-.624-1.992-.4-.496-.984-.744-1.752-.744-.896 0-1.568.304-2.016.912-.432.592-.648 1.392-.648 2.4V45Zm18.256-1.728c-.32.752-.768 1.288-1.344 1.608-.576.304-1.248.456-2.016.456-.72 0-1.4-.136-2.04-.408a4.832 4.832 0 0 1-1.656-1.2c-.48-.528-.864-1.168-1.152-1.92-.272-.752-.408-1.608-.408-2.568v-.384c0-.944.136-1.792.408-2.544.272-.752.64-1.392 1.104-1.92a4.66 4.66 0 0 1 1.608-1.2 4.697 4.697 0 0 1 1.992-.432c.848 0 1.528.144 2.04.432.528.288.944.736 1.248 1.344h.432v-1.44h3.024V41.4c0 .48.216.72.648.72h.456V45h-2.064c-.544 0-.992-.16-1.344-.48-.336-.32-.504-.736-.504-1.248h-.432Zm-2.688-.816c.88 0 1.584-.288 2.112-.864.528-.592.792-1.392.792-2.4v-.288c0-1.008-.264-1.8-.792-2.376-.528-.592-1.232-.888-2.112-.888-.88 0-1.584.296-2.112.888-.528.576-.792 1.368-.792 2.376v.288c0 1.008.264 1.808.792 2.4.528.576 1.232.864 2.112.864ZM134.536 45h-3.024v-8.352c0-.336-.088-.584-.264-.744-.16-.176-.376-.264-.648-.264-.32 0-.576.096-.768.288-.176.192-.264.48-.264.864V45h-3.024v-8.352c0-.336-.096-.584-.288-.744a.881.881 0 0 0-.648-.264.977.977 0 0 0-.72.288c-.192.192-.288.48-.288.864V45h-3.024V33.096h3.024v1.152h.432a1.83 1.83 0 0 1 .648-1.056c.352-.288.808-.432 1.368-.432.528 0 .976.144 1.344.432.368.272.616.624.744 1.056h.432a1.91 1.91 0 0 1 .792-1.056c.416-.288.928-.432 1.536-.432.8 0 1.44.272 1.92.816.48.528.72 1.264.72 2.208V45Zm9.376-1.728c-.32.752-.768 1.288-1.344 1.608-.576.304-1.248.456-2.016.456-.72 0-1.4-.136-2.04-.408a4.832 4.832 0 0 1-1.656-1.2c-.48-.528-.864-1.168-1.152-1.92-.272-.752-.408-1.608-.408-2.568v-.384c0-.944.136-1.792.408-2.544.272-.752.64-1.392 1.104-1.92a4.66 4.66 0 0 1 1.608-1.2 4.697 4.697 0 0 1 1.992-.432c.848 0 1.528.144 2.04.432.528.288.944.736 1.248 1.344h.432v-1.44h3.024V41.4c0 .48.216.72.648.72h.456V45h-2.064c-.544 0-.992-.16-1.344-.48-.336-.32-.504-.736-.504-1.248h-.432Zm-2.688-.816c.88 0 1.584-.288 2.112-.864.528-.592.792-1.392.792-2.4v-.288c0-1.008-.264-1.8-.792-2.376-.528-.592-1.232-.888-2.112-.888-.88 0-1.584.296-2.112.888-.528.576-.792 1.368-.792 2.376v.288c0 1.008.264 1.808.792 2.4.528.576 1.232.864 2.112.864Z" fill="#495567"/></svg>